<mxfile host="app.diagrams.net" modified="2023-06-01T12:39:40.732Z" agent="Mozilla/5.0 (X11; Ubuntu; Linux x86_64; rv:109.0) Gecko/20100101 Firefox/113.0" etag="GyOWg4nX4k3nDUZWjgoS" version="21.3.5" type="github">
  <diagram name="Page-1" id="GBd0BXuGBd-nfM0JVYe7">
    <mxGraphModel dx="2452" dy="795" grid="1" gridSize="10" guides="1" tooltips="1" connect="1" arrows="1" fold="1" page="1" pageScale="1" pageWidth="850" pageHeight="1100" math="0" shadow="0">
      <root>
        <mxCell id="0" />
        <mxCell id="1" parent="0" />
        <mxCell id="7IOt7IsW9sF5NG7Idb-Z-2" value="&lt;div&gt;lin-ops&lt;/div&gt;&lt;div&gt;10.50.22.28&lt;/div&gt;&lt;div&gt;eth0: 192.168.65.20/27&lt;/div&gt;&lt;div&gt;ssh-telnet-curl-wget-nmap-wireshark-tcpdump&lt;/div&gt;&lt;div&gt;&lt;br&gt;&lt;/div&gt;&lt;div&gt;student:password&lt;br&gt;&lt;/div&gt;" style="whiteSpace=wrap;html=1;aspect=fixed;" parent="1" vertex="1">
          <mxGeometry x="320" y="40" width="160" height="160" as="geometry" />
        </mxCell>
        <mxCell id="7IOt7IsW9sF5NG7Idb-Z-3" value="&lt;div&gt;22&lt;/div&gt;&lt;div&gt;80&lt;br&gt;&lt;/div&gt;" style="text;html=1;align=center;verticalAlign=middle;resizable=0;points=[];autosize=1;strokeColor=none;fillColor=none;" parent="1" vertex="1">
          <mxGeometry x="280" y="40" width="40" height="40" as="geometry" />
        </mxCell>
        <mxCell id="7IOt7IsW9sF5NG7Idb-Z-4" value="&lt;div&gt;lin.internet.donovia&lt;br&gt;&lt;/div&gt;&lt;div&gt;10.50.39.165&lt;/div&gt;&lt;div&gt;ens3: 10.10.28.40/27&lt;/div&gt;&lt;div&gt;ssh-telnet-curl-wget-tcpdump&lt;/div&gt;&lt;div&gt;&lt;br&gt;&lt;/div&gt;&lt;div&gt;student:9GbRCKc43SzluEG&lt;br&gt;&lt;/div&gt;" style="whiteSpace=wrap;html=1;aspect=fixed;" parent="1" vertex="1">
          <mxGeometry x="320" y="440" width="160" height="160" as="geometry" />
        </mxCell>
        <mxCell id="7IOt7IsW9sF5NG7Idb-Z-5" value="" style="endArrow=classic;html=1;rounded=0;exitX=0.5;exitY=1;exitDx=0;exitDy=0;entryX=0.5;entryY=0;entryDx=0;entryDy=0;" parent="1" source="7IOt7IsW9sF5NG7Idb-Z-2" target="7IOt7IsW9sF5NG7Idb-Z-4" edge="1">
          <mxGeometry width="50" height="50" relative="1" as="geometry">
            <mxPoint x="440" y="370" as="sourcePoint" />
            <mxPoint x="490" y="320" as="targetPoint" />
          </mxGeometry>
        </mxCell>
        <mxCell id="7IOt7IsW9sF5NG7Idb-Z-6" value="" style="ellipse;shape=cloud;whiteSpace=wrap;html=1;" parent="1" vertex="1">
          <mxGeometry x="340" y="283" width="120" height="80" as="geometry" />
        </mxCell>
        <mxCell id="7IOt7IsW9sF5NG7Idb-Z-7" value="22" style="text;html=1;align=center;verticalAlign=middle;resizable=0;points=[];autosize=1;strokeColor=none;fillColor=none;" parent="1" vertex="1">
          <mxGeometry x="280" y="440" width="40" height="30" as="geometry" />
        </mxCell>
        <mxCell id="7IOt7IsW9sF5NG7Idb-Z-16" value="192.168.28.100" style="whiteSpace=wrap;html=1;aspect=fixed;" parent="1" vertex="1">
          <mxGeometry x="40" y="760" width="160" height="160" as="geometry" />
        </mxCell>
        <mxCell id="7IOt7IsW9sF5NG7Idb-Z-17" value="&lt;div&gt;80&lt;/div&gt;&lt;div&gt;2222(ssh)&lt;br&gt;&lt;/div&gt;" style="text;html=1;align=center;verticalAlign=middle;resizable=0;points=[];autosize=1;strokeColor=none;fillColor=none;" parent="1" vertex="1">
          <mxGeometry x="-40" y="760" width="80" height="40" as="geometry" />
        </mxCell>
        <mxCell id="7IOt7IsW9sF5NG7Idb-Z-18" value="&lt;div&gt;ftp.site.donovia&lt;br&gt;&lt;/div&gt;&lt;div&gt;192.168.28.105&lt;/div&gt;&lt;div&gt;ens3: 192.168.28.105/28&lt;br&gt;&lt;/div&gt;&lt;div&gt;ssh-telnet-curl-wget-tcpdump&lt;/div&gt;&lt;div&gt;&lt;br&gt;&lt;/div&gt;&lt;div&gt;comrade:StudentReconPassword&lt;/div&gt;" style="whiteSpace=wrap;html=1;aspect=fixed;" parent="1" vertex="1">
          <mxGeometry x="320" y="760" width="160" height="160" as="geometry" />
        </mxCell>
        <mxCell id="7IOt7IsW9sF5NG7Idb-Z-19" value="&lt;div&gt;21&lt;/div&gt;&lt;div&gt;23&lt;/div&gt;&lt;div&gt;2222(ssh)&lt;br&gt;&lt;/div&gt;" style="text;html=1;align=center;verticalAlign=middle;resizable=0;points=[];autosize=1;strokeColor=none;fillColor=none;" parent="1" vertex="1">
          <mxGeometry x="240" y="760" width="80" height="60" as="geometry" />
        </mxCell>
        <mxCell id="7IOt7IsW9sF5NG7Idb-Z-20" value="&lt;div&gt;web.site.donovia&lt;br&gt;&lt;/div&gt;&lt;div&gt;192.168.28.111&lt;/div&gt;&lt;div&gt;ens3: 192.168.28.111/27&lt;/div&gt;&lt;div&gt;ssh-telnet-curl-wget-tcpdump&lt;/div&gt;&lt;div&gt;&lt;br&gt;&lt;/div&gt;&lt;div&gt;comrade:StudentWebExploitPassword&lt;/div&gt;" style="whiteSpace=wrap;html=1;aspect=fixed;" parent="1" vertex="1">
          <mxGeometry x="600" y="760" width="160" height="160" as="geometry" />
        </mxCell>
        <mxCell id="7IOt7IsW9sF5NG7Idb-Z-21" value="&lt;div&gt;80&lt;/div&gt;&lt;div&gt;2222(ssh)&lt;/div&gt;&lt;div&gt;8080(http)&lt;br&gt;&lt;/div&gt;" style="text;html=1;align=center;verticalAlign=middle;resizable=0;points=[];autosize=1;strokeColor=none;fillColor=none;" parent="1" vertex="1">
          <mxGeometry x="520" y="760" width="80" height="60" as="geometry" />
        </mxCell>
        <mxCell id="7IOt7IsW9sF5NG7Idb-Z-22" value="&lt;div&gt;grep-site-donovia-05&lt;br&gt;&lt;/div&gt;&lt;div&gt;192.168.28.120&lt;/div&gt;&lt;div&gt;ens3: 192.168.28.120/27&lt;/div&gt;&lt;div&gt;ssh-telnet-curl-wget-tcpdump&lt;/div&gt;&lt;div&gt;&lt;br&gt;&lt;/div&gt;&lt;div&gt;student:YourTempPassword&lt;br&gt;&lt;/div&gt;" style="whiteSpace=wrap;html=1;aspect=fixed;" parent="1" vertex="1">
          <mxGeometry x="320" y="1030" width="160" height="160" as="geometry" />
        </mxCell>
        <mxCell id="7IOt7IsW9sF5NG7Idb-Z-23" value="4242(ssh)" style="text;html=1;align=center;verticalAlign=middle;resizable=0;points=[];autosize=1;strokeColor=none;fillColor=none;" parent="1" vertex="1">
          <mxGeometry x="240" y="1030" width="80" height="30" as="geometry" />
        </mxCell>
        <mxCell id="7IOt7IsW9sF5NG7Idb-Z-24" value="" style="endArrow=none;html=1;rounded=0;entryX=0.5;entryY=1;entryDx=0;entryDy=0;" parent="1" target="7IOt7IsW9sF5NG7Idb-Z-4" edge="1">
          <mxGeometry width="50" height="50" relative="1" as="geometry">
            <mxPoint x="400" y="710" as="sourcePoint" />
            <mxPoint x="420" y="650" as="targetPoint" />
          </mxGeometry>
        </mxCell>
        <mxCell id="7IOt7IsW9sF5NG7Idb-Z-25" value="" style="endArrow=none;html=1;rounded=0;" parent="1" edge="1">
          <mxGeometry width="50" height="50" relative="1" as="geometry">
            <mxPoint x="80" y="711" as="sourcePoint" />
            <mxPoint x="720" y="711" as="targetPoint" />
          </mxGeometry>
        </mxCell>
        <mxCell id="7IOt7IsW9sF5NG7Idb-Z-26" value="&lt;div&gt;/admin&lt;/div&gt;&lt;div&gt;/admin/login.php&lt;/div&gt;&lt;div&gt;/img&lt;br&gt;&lt;/div&gt;" style="text;html=1;align=center;verticalAlign=middle;resizable=0;points=[];autosize=1;strokeColor=none;fillColor=none;" parent="1" vertex="1">
          <mxGeometry x="40" y="920" width="110" height="60" as="geometry" />
        </mxCell>
        <mxCell id="7IOt7IsW9sF5NG7Idb-Z-28" value="&lt;div&gt;ServerInitialization -&lt;/div&gt;&lt;div&gt;PassTemporary&lt;br&gt;loginfirst&lt;br&gt;logout null bit&lt;br&gt;houseBeatFliesLOW&lt;br&gt;YourTempPassword&lt;br&gt;&lt;br&gt;&lt;/div&gt;" style="text;html=1;align=center;verticalAlign=middle;resizable=0;points=[];autosize=1;strokeColor=none;fillColor=none;" parent="1" vertex="1">
          <mxGeometry x="320" y="920" width="130" height="110" as="geometry" />
        </mxCell>
        <mxCell id="7IOt7IsW9sF5NG7Idb-Z-29" value="/sites/NSC-Contacts.html" style="text;html=1;align=center;verticalAlign=middle;resizable=0;points=[];autosize=1;strokeColor=none;fillColor=none;" parent="1" vertex="1">
          <mxGeometry x="600" y="920" width="160" height="30" as="geometry" />
        </mxCell>
        <mxCell id="7IOt7IsW9sF5NG7Idb-Z-31" value="192.168.150.245" style="whiteSpace=wrap;html=1;aspect=fixed;" parent="1" vertex="1">
          <mxGeometry x="320" y="1280" width="160" height="160" as="geometry" />
        </mxCell>
        <mxCell id="7IOt7IsW9sF5NG7Idb-Z-32" value="&lt;div&gt;135&lt;/div&gt;&lt;div&gt;139&lt;/div&gt;&lt;div&gt;445&lt;/div&gt;" style="text;html=1;align=center;verticalAlign=middle;resizable=0;points=[];autosize=1;strokeColor=none;fillColor=none;" parent="1" vertex="1">
          <mxGeometry x="280" y="1280" width="40" height="60" as="geometry" />
        </mxCell>
        <mxCell id="7IOt7IsW9sF5NG7Idb-Z-33" value="" style="endArrow=none;html=1;rounded=0;entryX=0.5;entryY=1;entryDx=0;entryDy=0;exitX=0.5;exitY=0;exitDx=0;exitDy=0;" parent="1" source="7IOt7IsW9sF5NG7Idb-Z-31" target="7IOt7IsW9sF5NG7Idb-Z-22" edge="1">
          <mxGeometry width="50" height="50" relative="1" as="geometry">
            <mxPoint x="350" y="1270" as="sourcePoint" />
            <mxPoint x="400" y="1220" as="targetPoint" />
          </mxGeometry>
        </mxCell>
        <mxCell id="7IOt7IsW9sF5NG7Idb-Z-34" value="&lt;div&gt;Donovian_MI_websvr&lt;/div&gt;&lt;div&gt;10.100.28.40&lt;/div&gt;&lt;div&gt;ens3: 10.100.28.40&lt;br&gt;&lt;/div&gt;&lt;div&gt;ssh-telnet-curl-wget-tcpdump&lt;br&gt;&lt;/div&gt;" style="whiteSpace=wrap;html=1;aspect=fixed;" parent="1" vertex="1">
          <mxGeometry x="960" y="440" width="160" height="160" as="geometry" />
        </mxCell>
        <mxCell id="7IOt7IsW9sF5NG7Idb-Z-37" value="&lt;div&gt;80&lt;/div&gt;&lt;div&gt;4444(ssh)&lt;br&gt;&lt;/div&gt;" style="text;html=1;align=center;verticalAlign=middle;resizable=0;points=[];autosize=1;strokeColor=none;fillColor=none;" parent="1" vertex="1">
          <mxGeometry x="880" y="440" width="80" height="40" as="geometry" />
        </mxCell>
        <mxCell id="7IOt7IsW9sF5NG7Idb-Z-39" value="&lt;div&gt;ATROPIA&lt;/div&gt;&lt;div&gt;10.100.28.55&lt;br&gt;&lt;/div&gt;" style="whiteSpace=wrap;html=1;aspect=fixed;" parent="1" vertex="1">
          <mxGeometry x="1440" y="440" width="160" height="160" as="geometry" />
        </mxCell>
        <mxCell id="7IOt7IsW9sF5NG7Idb-Z-41" value="" style="endArrow=none;html=1;rounded=0;exitX=1;exitY=0.5;exitDx=0;exitDy=0;entryX=0;entryY=0.5;entryDx=0;entryDy=0;" parent="1" source="7IOt7IsW9sF5NG7Idb-Z-34" target="7IOt7IsW9sF5NG7Idb-Z-39" edge="1">
          <mxGeometry width="50" height="50" relative="1" as="geometry">
            <mxPoint x="1260" y="550" as="sourcePoint" />
            <mxPoint x="1310" y="500" as="targetPoint" />
          </mxGeometry>
        </mxCell>
        <mxCell id="7IOt7IsW9sF5NG7Idb-Z-42" value="80" style="text;html=1;align=center;verticalAlign=middle;resizable=0;points=[];autosize=1;strokeColor=none;fillColor=none;" parent="1" vertex="1">
          <mxGeometry x="1400" y="440" width="40" height="30" as="geometry" />
        </mxCell>
        <mxCell id="_pwzAAkmadzu1BI4Hcq6-1" value="10.100.28.48" style="whiteSpace=wrap;html=1;aspect=fixed;" parent="1" vertex="1">
          <mxGeometry x="960" y="640" width="160" height="160" as="geometry" />
        </mxCell>
        <mxCell id="_pwzAAkmadzu1BI4Hcq6-2" value="&lt;div&gt;80&lt;/div&gt;&lt;div&gt;4444(ssh)&lt;br&gt;&lt;/div&gt;" style="text;html=1;align=center;verticalAlign=middle;resizable=0;points=[];autosize=1;strokeColor=none;fillColor=none;" parent="1" vertex="1">
          <mxGeometry x="880" y="640" width="80" height="40" as="geometry" />
        </mxCell>
        <mxCell id="_pwzAAkmadzu1BI4Hcq6-5" value="" style="endArrow=none;html=1;rounded=0;exitX=1;exitY=0.5;exitDx=0;exitDy=0;" parent="1" source="7IOt7IsW9sF5NG7Idb-Z-4" edge="1">
          <mxGeometry width="50" height="50" relative="1" as="geometry">
            <mxPoint x="610" y="470" as="sourcePoint" />
            <mxPoint x="840" y="520" as="targetPoint" />
          </mxGeometry>
        </mxCell>
        <mxCell id="_pwzAAkmadzu1BI4Hcq6-6" value="" style="endArrow=none;html=1;rounded=0;" parent="1" edge="1">
          <mxGeometry width="50" height="50" relative="1" as="geometry">
            <mxPoint x="841" y="760" as="sourcePoint" />
            <mxPoint x="841" y="280" as="targetPoint" />
          </mxGeometry>
        </mxCell>
        <mxCell id="_pwzAAkmadzu1BI4Hcq6-7" value="" style="ellipse;shape=cloud;whiteSpace=wrap;html=1;" parent="1" vertex="1">
          <mxGeometry x="590" y="479" width="120" height="80" as="geometry" />
        </mxCell>
      </root>
    </mxGraphModel>
  </diagram>
</mxfile>
